<svg xmlns="http://www.w3.org/2000/svg" viewBox="0 0 867.55 1522.96"><defs><style>.cls-1,.cls-2,.cls-4,.cls-9{fill:#fff;}.cls-2{font-size:24px;}.cls-2,.cls-4,.cls-9{font-family:Figtree-Medium, Figtree;font-weight:500;}.cls-3{letter-spacing:-0.01em;}.cls-4{font-size:20.57px;}.cls-5{letter-spacing:-0.01em;}.cls-6{letter-spacing:0em;}.cls-7{letter-spacing:0em;}.cls-8{letter-spacing:-0.01em;}.cls-9{font-size:54.2px;}.cls-10{letter-spacing:-0.01em;}.cls-11{letter-spacing:0em;}.cls-12{fill:none;stroke:#fff;stroke-miterlimit:10;stroke-width:3px;}</style></defs><g id="Layer_2" data-name="Layer 2"><g id="Layer_1-2" data-name="Layer 1"><circle class="cls-1" cx="57.78" cy="44.28" r="23.17"/><circle class="cls-1" cx="57.78" cy="44.28" r="44.28"/><circle class="cls-1" cx="530.81" cy="169.64" r="23.17"/><circle class="cls-1" cx="530.81" cy="169.64" r="44.28"/><text class="cls-2" transform="translate(0 123.67)"><tspan class="cls-3">K</tspan><tspan x="14.66" y="0">amu cantik</tspan></text><text class="cls-4" transform="translate(482.46 242.71)"><tspan class="cls-5">K</tspan><tspan x="12.57" y="0">amu lucu</tspan></text><circle class="cls-1" cx="799.29" cy="331.63" r="23.17"/><circle class="cls-1" cx="799.29" cy="331.63" r="44.28"/><text class="cls-2" transform="translate(737.26 404.99)"><tspan class="cls-3">K</tspan><tspan x="14.66" y="0">amu manis</tspan></text><circle class="cls-1" cx="146.73" cy="443.75" r="23.17"/><circle class="cls-1" cx="146.73" cy="443.75" r="44.28"/><text class="cls-2" transform="translate(84.69 517.11)"><tspan class="cls-3">K</tspan><tspan x="14.66" y="0">amu pin</tspan><tspan class="cls-6" x="100.41" y="0">t</tspan><tspan class="cls-7" x="109.53" y="0">er</tspan></text><circle class="cls-1" cx="448.38" cy="653.42" r="23.17"/><circle class="cls-1" cx="448.38" cy="653.42" r="44.28"/><text class="cls-2" transform="translate(386.34 726.78)"><tspan class="cls-3">K</tspan><tspan x="14.66" y="0">amu kuat</tspan></text><circle class="cls-1" cx="761.46" cy="781.24" r="23.17"/><circle class="cls-1" cx="761.46" cy="781.24" r="44.28"/><text class="cls-2" transform="translate(678.42 854.6)"><tspan class="cls-3">K</tspan><tspan x="14.66" y="0">amu ber-</tspan><tspan class="cls-8" x="112.53" y="0">v</tspan><tspan x="124.94" y="0">alue</tspan></text><circle class="cls-1" cx="409" cy="1345.36" r="52.32"/><circle class="cls-1" cx="409" cy="1345.36" r="100"/><text class="cls-9" transform="translate(246.48 1511.03)"><tspan class="cls-10">K</tspan><tspan x="33.12" y="0">amu </tspan><tspan class="cls-11" x="151.17" y="0">t</tspan><tspan x="171.76" y="0">erbaik</tspan></text><polyline class="cls-12" points="57.78 44.28 530.25 169.64 798.65 330.99 145.5 440.6 448.29 653.71 762.65 780.99 234.22 1004.71 409.72 1349.92"/></g></g></svg>